<svg xmlns="http://www.w3.org/2000/svg" viewBox="0 0 384 382" width="128" height="128" fill='#1677ff' preserveAspectRatio="xMidYMid meet">
  <g transform="translate(0,382) scale(0.1,-0.1)">
    <path d="M210 3313 c-39 -14 -40 -27 -40 -377 0 -262 4 -353 14 -394 13 -47
    147 -292 342 -622 262 -445 808 -1389 839 -1450 55 -111 97 -162 157 -196 52
    -29 55 -29 195 -27 156 1 231 13 272 43 15 10 49 56 76 102 27 46 83 142 125
    213 42 72 141 240 220 375 79 135 171 292 205 350 34 58 185 316 335 575 150
    259 290 500 312 537 53 89 57 130 58 516 l0 313 -25 24 -24 25 -349 0 c-344 0
    -349 0 -393 -23 -48 -25 -83 -72 -179 -243 -92 -164 -591 -1018 -599 -1027
    -10 -10 -56 61 -237 373 -413 712 -500 854 -544 885 l-42 30 -351 2 c-194 1
    -359 -1 -367 -4z m685 -175 c19 -18 77 -105 128 -193 52 -88 163 -279 249
    -425 85 -146 242 -413 348 -595 216 -369 295 -503 310 -525 8 -13 14 -10 35
    15 14 17 45 64 69 105 24 41 73 127 111 190 111 190 172 295 293 505 63 110
    123 210 134 222 37 40 62 44 306 41 l233 -3 -118 -200 c-64 -110 -146 -252
    -183 -315 -125 -215 -421 -724 -601 -1031 -41 -69 -114 -196 -164 -282 -49
    -86 -94 -157 -100 -157 -5 0 -17 12 -26 28 -76 132 -230 397 -341 587 -74 127
    -152 259 -173 295 -21 36 -68 117 -105 180 -205 349 -913 1566 -917 1577 -4
    10 41 13 236 13 l241 0 35 -32z m2246 3 l29 -30 -2 -243 -3 -243 -140 -3 c-77
    -2 -187 -1 -244 3 -158 11 -151 -3 -151 288 0 168 3 236 12 245 9 9 76 12 241
    12 l229 0 29 -29z m-671 -373 c0 -208 -9 -239 -114 -401 -30 -45 -107 -174
    -171 -287 -169 -293 -198 -342 -218 -370 l-18 -25 -35 40 c-20 22 -44 58 -54
    79 -16 34 -17 44 -6 80 11 35 149 280 371 656 34 58 88 150 120 205 88 150
    104 175 115 175 6 0 10 -59 10 -152z m-2069 59 c69 -120 427 -734 499 -857
    138 -234 414 -707 450 -770 35 -63 212 -366 372 -638 43 -73 78 -137 78 -141
    0 -10 -75 -21 -142 -21 -79 0 -49 -44 -449 645 -111 193 -225 388 -251 435
    -91 157 -159 274 -365 618 -113 189 -217 370 -230 402 -30 76 -45 193 -37 300
    9 136 12 137 75 27z"/>
  </g>
</svg>
